<svg width="60" height="60" viewBox="0 0 60 60" fill="none" xmlns="http://www.w3.org/2000/svg">
<path d="M16.8808 46.832H27.5458C27.929 46.832 28.3084 46.9075 28.6624 47.0541C29.0164 47.2007 29.338 47.4157 29.609 47.6866C29.8799 47.9576 30.0948 48.2792 30.2415 48.6332C30.3881 48.9872 30.4636 49.3666 30.4636 49.7498V50.0824C30.4636 50.8563 30.1562 51.5984 29.609 52.1456C29.0618 52.6928 28.3196 53.0002 27.5458 53.0002H16.8808C16.1069 53.0002 15.3648 52.6928 14.8176 52.1456C14.2704 51.5984 13.963 50.8563 13.963 50.0824V49.7498C13.963 49.3666 14.0385 48.9872 14.1851 48.6332C14.3317 48.2792 14.5466 47.9575 14.8176 47.6866C15.0885 47.4157 15.4102 47.2007 15.7642 47.0541C16.1182 46.9075 16.4976 46.832 16.8808 46.832Z" fill="black"/>
<path d="M31.6354 18.1355C30.9189 18.1363 30.2321 18.4212 29.7255 18.9279C29.2189 19.4345 28.9339 20.1213 28.9331 20.8378V23.8547C28.9331 24.2096 29.003 24.561 29.1388 24.8888C29.2746 25.2167 29.4737 25.5146 29.7246 25.7655C29.9755 26.0164 30.2734 26.2155 30.6013 26.3513C30.9291 26.4871 31.2805 26.557 31.6354 26.557C31.9903 26.557 32.3417 26.4871 32.6695 26.3513C32.9974 26.2155 33.2953 26.0164 33.5462 25.7655C33.7971 25.5146 33.9962 25.2167 34.132 24.8888C34.2678 24.561 34.3377 24.2096 34.3377 23.8547V20.8378C34.3369 20.1213 34.0519 19.4344 33.5453 18.9278C33.0387 18.4212 32.3518 18.1363 31.6354 18.1355Z" fill="black"/>
<path d="M52.7986 30.9266C52.6979 30.9263 52.5991 30.8986 52.5129 30.8464C52.4267 30.7942 52.3564 30.7194 52.3095 30.6302C52.2626 30.541 52.241 30.4408 52.2468 30.3402C52.2527 30.2396 52.2859 30.1425 52.3428 30.0593C53.8394 27.8329 54.6367 25.2102 54.6325 22.5276C54.6325 20.7511 54.2826 18.992 53.6028 17.3508C52.923 15.7096 51.9266 14.2183 50.6704 12.9621C49.4143 11.706 47.923 10.7096 46.2817 10.0297C44.6405 9.3499 42.8814 9 41.105 9H16.5275C12.9398 9.00002 9.49902 10.4253 6.96212 12.9622C4.42522 15.4991 3 18.9399 3 22.5276C3 26.1154 4.42523 29.5562 6.96215 32.0931C9.49907 34.63 12.9399 36.0552 16.5276 36.0552H26.2591C26.5273 36.0559 26.7868 36.1504 26.9926 36.3225C27.1984 36.4946 27.3374 36.7332 27.3855 36.9971L27.39 37.0208C27.4205 37.1858 27.4142 37.3556 27.3716 37.5179C27.3291 37.6803 27.2512 37.8312 27.1437 37.9601C27.0361 38.0889 26.9014 38.1925 26.7493 38.2633C26.5971 38.3342 26.4313 38.3707 26.2634 38.3701H24.6605C24.2113 38.3692 23.7664 38.4569 23.3511 38.6281C22.9359 38.7993 22.5585 39.0508 22.2406 39.3681C21.9226 39.6854 21.6704 40.0622 21.4983 40.4771C21.3262 40.892 21.2376 41.3368 21.2376 41.7859C21.2376 42.2351 21.3262 42.6799 21.4983 43.0947C21.6704 43.5096 21.9226 43.8865 22.2406 44.2038C22.5585 44.5211 22.9359 44.7725 23.3511 44.9438C23.7664 45.115 24.2113 45.2027 24.6605 45.2017H32.9721C33.4207 45.2017 33.8649 45.1134 34.2793 44.9417C34.6937 44.7701 35.0703 44.5185 35.3874 44.2013C35.7046 43.8841 35.9562 43.5075 36.1279 43.0931C36.2996 42.6787 36.3879 42.2345 36.3879 41.7859V41.7666C36.3882 41.6122 36.4496 41.4642 36.5587 41.355C36.6678 41.2458 36.8158 41.1842 36.9702 41.1838H52.7986C54.1588 41.1838 55.4632 40.6435 56.425 39.6817C57.3868 38.7199 57.9272 37.4154 57.9272 36.0552C57.9272 35.3817 57.7945 34.7148 57.5368 34.0926C57.2791 33.4704 56.9013 32.905 56.4251 32.4287C55.9489 31.9525 55.3835 31.5747 54.7613 31.317C54.139 31.0592 53.4721 30.9266 52.7986 30.9266ZM23.7934 27.6012C23.3002 28.1918 22.6832 28.6667 21.9861 28.9924C21.289 29.318 20.5288 29.4864 19.7594 29.4857H19.0172C17.6226 29.4841 16.2856 28.9295 15.2996 27.9434C14.3135 26.9573 13.7588 25.6203 13.7572 24.2258V20.4665C13.7588 19.072 14.3135 17.7351 15.2996 16.749C16.2857 15.763 17.6226 15.2083 19.0172 15.2068H19.7594C20.4505 15.2048 21.135 15.34 21.7735 15.6045C22.4119 15.869 22.9915 16.2574 23.4788 16.7475C23.6152 16.8834 23.7236 17.0448 23.7975 17.2226C23.8715 17.4004 23.9097 17.5911 23.9099 17.7836C23.9101 17.9762 23.8723 18.1669 23.7987 18.3449C23.725 18.5228 23.6171 18.6845 23.4809 18.8207C23.3447 18.9568 23.183 19.0648 23.005 19.1384C22.827 19.212 22.6363 19.2497 22.4437 19.2495C22.2512 19.2492 22.0605 19.211 21.8827 19.137C21.705 19.063 21.5435 18.9546 21.4077 18.8181C21.1917 18.601 20.9349 18.4288 20.6519 18.3117C20.369 18.1945 20.0657 18.1346 19.7594 18.1355H19.0172C18.3991 18.1361 17.8066 18.3819 17.3695 18.819C16.9325 19.256 16.6866 19.8485 16.6859 20.4665V24.2258C16.6866 24.8439 16.9324 25.4364 17.3695 25.8735C17.8065 26.3105 18.3991 26.5563 19.0172 26.557H19.7594C20.1006 26.5573 20.4376 26.4825 20.7467 26.338C21.0558 26.1936 21.3293 25.9829 21.5479 25.721C21.7976 25.4244 22.1547 25.239 22.541 25.2053C22.9272 25.1716 23.311 25.2925 23.6083 25.5414C23.9055 25.7903 24.0919 26.1469 24.1266 26.5331C24.1613 26.9192 24.0415 27.3033 23.7934 27.6012ZM37.2664 23.8547C37.2664 25.3481 36.6731 26.7804 35.6171 27.8364C34.5611 28.8924 33.1288 29.4857 31.6354 29.4857C30.1419 29.4857 28.7097 28.8924 27.6537 27.8364C26.5977 26.7804 26.0044 25.3481 26.0044 23.8547V20.8378C26.0044 19.3443 26.5977 17.9121 27.6537 16.8561C28.7097 15.8001 30.1419 15.2068 31.6354 15.2068C33.1288 15.2068 34.5611 15.8001 35.6171 16.8561C36.6731 17.9121 37.2664 19.3443 37.2664 20.8378V23.8547ZM45.5591 31.9943C45.9474 31.9943 46.3199 32.1485 46.5945 32.4232C46.8691 32.6978 47.0234 33.0702 47.0234 33.4586C47.0234 33.847 46.8691 34.2194 46.5945 34.494C46.3199 34.7687 45.9474 34.9229 45.5591 34.9229H40.7415C40.4644 34.9229 40.193 34.8443 39.9588 34.6962C39.7247 34.5482 39.5373 34.3367 39.4185 34.0864C39.2997 33.836 39.2544 33.5572 39.2878 33.2821C39.3212 33.0071 39.4319 32.7471 39.6072 32.5325L43.7513 27.4572C43.7703 27.4339 43.79 27.4112 43.8105 27.389C43.9516 27.2364 44.0453 27.046 44.0799 26.841C44.1145 26.636 44.0886 26.4253 44.0053 26.2348C43.922 26.0444 43.785 25.8823 43.6111 25.7685C43.4371 25.6546 43.2337 25.594 43.0258 25.594H42.7244C42.4409 25.5943 42.1692 25.7071 41.9688 25.9075C41.7683 26.1079 41.6556 26.3796 41.6553 26.663V26.9856C41.6553 27.374 41.501 27.7465 41.2264 28.0211C40.9517 28.2957 40.5793 28.45 40.1909 28.45C39.8025 28.45 39.4301 28.2957 39.1555 28.0211C38.8809 27.7465 38.7266 27.374 38.7266 26.9856V26.663C38.7278 25.6031 39.1494 24.587 39.8988 23.8375C40.6483 23.0881 41.6645 22.6665 42.7244 22.6653H43.0258C43.7989 22.6654 44.5555 22.8896 45.2038 23.3108C45.8521 23.732 46.3644 24.3322 46.6785 25.0386C46.9927 25.745 47.0953 26.5274 46.9739 27.2909C46.8524 28.0545 46.5122 28.7664 45.9944 29.3406L43.8276 31.9943H45.5591Z" fill="black"/>
</svg>
