<svg width="60" height="60" viewBox="0 0 60 60" fill="none" xmlns="http://www.w3.org/2000/svg">
<path fill-rule="evenodd" clip-rule="evenodd" d="M5.60105 13.5036C4.45389 12.4791 3.7312 10.9881 3.7312 9.32821C3.7312 9.32731 3.7312 9.32597 3.7312 9.32463C3.7312 6.23552 6.23553 3.73119 9.32463 3.73119C18.3587 3.73119 41.3427 3.73119 50.3767 3.73119C53.4658 3.73119 55.9702 6.23552 55.9702 9.32463V9.32821C55.9702 10.9881 55.2479 12.4791 54.1003 13.5036C53.863 26.6857 43.0881 37.3133 29.8509 37.3133C16.6133 37.3133 5.83881 26.6857 5.60105 13.5036ZM29.8509 33.5821C32.9364 33.5821 35.4417 31.0769 35.4417 27.9913C35.4417 24.9058 32.9364 22.4006 29.8509 22.4006C26.7649 22.4006 24.2602 24.9058 24.2602 27.9913C24.2602 31.0769 26.7649 33.5821 29.8509 33.5821ZM9.4124 14.9252C10.0867 22.3997 14.7761 28.7234 21.3058 31.7212C20.8061 30.579 20.5285 29.3172 20.5285 27.9913C20.5285 22.8461 24.7057 18.6694 29.8509 18.6694C34.9957 18.6694 39.1728 22.8461 39.1728 27.9913C39.1728 29.3172 38.8957 30.579 38.3955 31.7212C44.9239 28.7252 49.6142 22.401 50.2894 14.9252H9.4124ZM52.239 9.32463C52.239 8.29612 51.4052 7.46284 50.3767 7.46284C41.3427 7.46284 18.3587 7.46284 9.32463 7.46284C8.29613 7.46284 7.46284 8.29612 7.46284 9.32463C7.46284 9.32597 7.46284 9.32731 7.46284 9.32821C7.46284 10.359 8.29792 11.194 9.32822 11.194C18.364 11.194 41.3378 11.194 50.3731 11.194C51.4034 11.194 52.239 10.359 52.239 9.32821V9.32463Z" fill="black"/>
<path fill-rule="evenodd" clip-rule="evenodd" d="M40.5752 45.1334C39.5682 49.26 35.0978 52.239 29.8509 52.239C24.6036 52.239 20.1331 49.26 19.1266 45.1334C18.8825 44.1331 17.8719 43.5193 16.8717 43.7633C15.8714 44.0073 15.2575 45.0175 15.5015 46.0178C16.8681 51.6193 22.7279 55.9701 29.8509 55.9701C36.9734 55.9701 42.8333 51.6193 44.1999 46.0178C44.4443 45.0175 43.83 44.0073 42.8297 43.7633C41.8294 43.5193 40.8193 44.1331 40.5752 45.1334Z" fill="black"/>
<path fill-rule="evenodd" clip-rule="evenodd" d="M35.3718 42.7142C34.5752 44.5899 32.3732 45.8422 29.8509 45.8422C27.3282 45.8422 25.1261 44.5899 24.3296 42.7142C23.927 41.7663 22.8309 41.3239 21.883 41.7264C20.9351 42.129 20.4927 43.2251 20.8952 44.173C22.2081 47.2643 25.6935 49.5734 29.8509 49.5734C34.0079 49.5734 37.4933 47.2643 38.8066 44.173C39.2091 43.2251 38.7663 42.129 37.8184 41.7264C36.8709 41.3239 35.7743 41.7663 35.3718 42.7142Z" fill="black"/>
<path d="M29.8509 42.9107C30.8814 42.9107 31.7167 42.0754 31.7167 41.0449C31.7167 40.0145 30.8814 39.1791 29.8509 39.1791C28.8204 39.1791 27.9851 40.0145 27.9851 41.0449C27.9851 42.0754 28.8204 42.9107 29.8509 42.9107Z" fill="black"/>
</svg>
