<svg width="60" height="60" viewBox="0 0 60 60" fill="none" xmlns="http://www.w3.org/2000/svg">
<g clip-path="url(#clip0_1630_1104)">
<path d="M54.623 45.6217L41.8686 27.1277C40.6206 25.3181 39.9609 23.1997 39.9609 21.0014V9.34383C41.9804 8.82211 43.4766 6.98484 43.4766 4.80469C43.4766 2.22 41.3737 0.117188 38.7891 0.117188H21.2109C18.6262 0.117188 16.5234 2.22 16.5234 4.80469C16.5234 6.98484 18.0196 8.82211 20.0391 9.34383V21.0014C20.0391 23.1997 19.3794 25.3181 18.1314 27.1277L5.37702 45.6217C3.45163 48.4134 3.23507 52.0129 4.81171 55.0153C6.38824 58.0177 9.47437 59.8828 12.8655 59.8828H47.1344C50.5256 59.8828 53.6118 58.0177 55.1884 55.0153C56.765 52.0129 56.5484 48.4134 54.623 45.6217ZM18.8672 4.80469C18.8672 3.51234 19.9186 2.46094 21.2109 2.46094H38.7891C40.0814 2.46094 41.1328 3.51234 41.1328 4.80469C41.1328 6.09703 40.0814 7.14844 38.7891 7.14844H21.2109C19.9186 7.14844 18.8672 6.09703 18.8672 4.80469ZM53.1132 53.9256C51.9429 56.1545 49.6519 57.5391 47.1343 57.5391H12.8655C10.3481 57.5391 8.0571 56.1545 6.88663 53.9256C5.71616 51.6967 5.87706 49.0248 7.3064 46.9523L20.0607 28.4585C21.5798 26.2557 22.3828 23.6771 22.3828 21.0014V9.49219H37.6172V21.0014C37.6172 23.6771 38.4201 26.2557 39.9391 28.4585L52.6935 46.9523C54.1229 49.0248 54.2837 51.6968 53.1132 53.9256Z" fill="black"/>
<path d="M34.1016 11.8359H31.7578C31.1107 11.8359 30.5859 12.3607 30.5859 13.0078C30.5859 13.6549 31.1107 14.1797 31.7578 14.1797H34.1016C34.7487 14.1797 35.2734 13.6549 35.2734 13.0078C35.2734 12.3607 34.7487 11.8359 34.1016 11.8359Z" fill="black"/>
<path d="M34.1016 16.5234H31.7578C31.1107 16.5234 30.5859 17.0482 30.5859 17.6953C30.5859 18.3424 31.1107 18.8672 31.7578 18.8672H34.1016C34.7487 18.8672 35.2734 18.3424 35.2734 17.6953C35.2734 17.0482 34.7487 16.5234 34.1016 16.5234Z" fill="black"/>
<path d="M34.1016 21.2109H31.7578C31.1107 21.2109 30.5859 21.7357 30.5859 22.3828C30.5859 23.0299 31.1107 23.5547 31.7578 23.5547H34.1016C34.7487 23.5547 35.2734 23.0299 35.2734 22.3828C35.2734 21.7357 34.7487 21.2109 34.1016 21.2109Z" fill="black"/>
<path d="M50.7647 48.2827C37.4771 28.9913 37.9298 29.7348 37.3939 28.8213C37.1836 28.4626 36.799 28.2423 36.3831 28.2423H33.3139C32.8302 26.8784 31.5276 25.8986 29.9999 25.8986C28.4721 25.8986 27.1696 26.8784 26.6858 28.2423H23.6167C23.2008 28.2423 22.8162 28.4627 22.6058 28.8213C22.4113 29.153 22.204 29.4786 21.9898 29.7894L9.23483 48.2834C8.30273 49.6371 8.19808 51.3817 8.96214 52.8363C9.72632 54.2913 11.2223 55.1953 12.866 55.1953H47.134C48.7776 55.1953 50.2737 54.2913 51.0378 52.8362C51.8019 51.3817 51.6973 49.637 50.7647 48.2827ZM30 28.2422C30.6462 28.2422 31.1719 28.7679 31.1719 29.4141C31.1719 30.0602 30.6462 30.5859 30 30.5859C29.3538 30.5859 28.8281 30.0602 28.8281 29.4141C28.8281 28.7679 29.3538 28.2422 30 28.2422ZM48.9628 51.7465C48.6048 52.4281 47.904 52.8516 47.134 52.8516H12.866C12.096 52.8516 11.3951 52.4282 11.0372 51.7465C10.6791 51.0648 10.7282 50.2472 11.1648 49.6133C24.6573 30.0429 23.9564 31.0834 24.2735 30.5859H26.6859C27.1697 31.9499 28.4722 32.9297 30 32.9297C31.5278 32.9297 32.8303 31.9499 33.3141 30.5859H35.7265C36.0545 31.1 35.3792 30.0957 48.8347 49.6126C49.2718 50.2472 49.3209 51.0648 48.9628 51.7465Z" fill="#40444B"/>
<path d="M37.6172 43.4766C35.6787 43.4766 34.1016 45.0537 34.1016 46.9922C34.1016 48.9307 35.6787 50.5078 37.6172 50.5078C39.5557 50.5078 41.1328 48.9307 41.1328 46.9922C41.1328 45.0537 39.5557 43.4766 37.6172 43.4766ZM37.6172 48.1641C36.971 48.1641 36.4453 47.6384 36.4453 46.9922C36.4453 46.346 36.971 45.8203 37.6172 45.8203C38.2634 45.8203 38.7891 46.346 38.7891 46.9922C38.7891 47.6384 38.2634 48.1641 37.6172 48.1641Z" fill="#40444B"/>
<path d="M24.7265 39.9609C22.788 39.9609 21.2109 41.538 21.2109 43.4766C21.2109 45.4151 22.788 46.9922 24.7265 46.9922C26.6651 46.9922 28.2422 45.4151 28.2422 43.4766C28.2422 41.538 26.6651 39.9609 24.7265 39.9609ZM24.7265 44.6484C24.0804 44.6484 23.5547 44.1227 23.5547 43.4766C23.5547 42.8304 24.0804 42.3047 24.7265 42.3047C25.3727 42.3047 25.8984 42.8304 25.8984 43.4766C25.8984 44.1227 25.3727 44.6484 24.7265 44.6484Z" fill="#40444B"/>
</g>
<defs>
<clipPath id="clip0_1630_1104">
<rect width="60" height="60" fill="white"/>
</clipPath>
</defs>
</svg>
