<svg width="60" height="60" viewBox="0 0 60 60" fill="none" xmlns="http://www.w3.org/2000/svg">
<g clip-path="url(#clip0_1630_1140)">
<path d="M27.5 27.4485C27.5 26.0677 28.6193 24.9484 30 24.9484C31.3807 24.9484 32.5 26.0677 32.5 27.4485V42.4485C32.5 43.8293 31.3807 44.9485 30 44.9485C28.6193 44.9485 27.5 43.8293 27.5 42.4485V27.4485Z" fill="black"/>
<path d="M30 15.1279C28.6193 15.1279 27.5 16.2472 27.5 17.6279C27.5 19.0086 28.6193 20.1279 30 20.1279C31.3807 20.1279 32.5 19.0086 32.5 17.6279C32.5 16.2472 31.3807 15.1279 30 15.1279Z" fill="black"/>
<path fill-rule="evenodd" clip-rule="evenodd" d="M30 5C16.1929 5 5 16.1929 5 30C5 43.807 16.1929 55 30 55C43.807 55 55 43.807 55 30C55 16.1929 43.807 5 30 5ZM10 30C10 41.0457 18.9543 50 30 50C41.0457 50 50 41.0457 50 30C50 18.9543 41.0457 10 30 10C18.9543 10 10 18.9543 10 30Z" fill="black"/>
</g>
<defs>
<clipPath id="clip0_1630_1140">
<rect width="60" height="60" fill="white"/>
</clipPath>
</defs>
</svg>
