<svg width="60" height="60" viewBox="0 0 60 60" fill="none" xmlns="http://www.w3.org/2000/svg">
<path d="M23.4722 36.5962C23.4525 36.5747 23.4525 36.5559 23.4263 36.5353C22.6238 35.8359 22.5769 34.5187 22.5769 34.5187V5.47874C22.5769 1.00499 19.8666 0.18468 18.4303 0.0628052H11.7319C10.9763 0.0834302 7.85063 0.419055 7.85063 4.56562V34.4494C7.85063 34.4494 7.86188 35.8134 7.10719 36.4509C7.08095 36.4716 7.08844 36.4866 7.07063 36.5072C4.03407 38.9137 2.07001 42.6178 2.07001 46.7953C2.07001 54.0544 7.95376 59.9391 15.2138 59.9391C22.4738 59.9391 28.3575 54.0553 28.3575 46.7953C28.3566 42.6703 26.4441 39.0047 23.4722 36.5962ZM15.4031 57.1181C9.90563 57.1181 5.4497 52.6603 5.4497 47.1637C5.4497 43.8637 7.06969 40.9594 9.54188 39.1509C9.5597 39.1331 9.56157 39.1191 9.58219 39.1022C10.8403 38.0259 10.9538 35.8416 10.9538 35.8416V6.29906C10.9538 4.68562 12.2625 3.37874 13.875 3.37874H16.5525C18.1659 3.37874 19.4728 4.68655 19.4728 6.29906V35.9222C19.5131 36.5522 19.7709 37.8 21.1097 39.0197C21.1491 39.0553 21.1725 39.0834 21.2072 39.1172C23.7103 40.9247 25.3566 43.8422 25.3566 47.1647C25.3566 52.6603 20.9006 57.1181 15.4031 57.1181Z" fill="#241F20"/>
<path d="M19.0331 42.1453C19.0303 42.1425 19.0285 42.1406 19.0256 42.1378C16.9538 40.2825 16.7775 38.2912 16.7653 37.8187V31.4606C16.7653 30.1181 15.8475 30.0075 15.5972 30H14.9166C14.9166 30 13.6613 29.9775 13.6613 31.5515V37.5937C13.6097 38.6044 13.2563 40.6378 11.3372 42.18C11.3391 42.1819 11.3391 42.1828 11.3419 42.1847C9.81752 43.3434 8.82471 45.1565 8.82471 47.2219C8.82471 50.7506 11.685 53.61 15.2128 53.61C18.7406 53.61 21.6019 50.7497 21.6019 47.2219C21.6028 45.1331 20.5875 43.3031 19.0331 42.1453Z" fill="#241F20"/>
<path d="M53.0447 36.5962C53.025 36.5747 53.025 36.5559 52.9988 36.5353C52.1972 35.8359 52.1485 34.5187 52.1485 34.5187V5.47874C52.1485 1.00499 49.4391 0.18468 48.0047 0.0628052H41.3044C40.5478 0.0834302 37.4231 0.419993 37.4231 4.56656V34.4503C37.4231 34.4503 37.4335 35.8144 36.6797 36.4519C36.6544 36.4725 36.661 36.4875 36.6431 36.5081C33.6056 38.9147 31.6425 42.6187 31.6425 46.7962C31.6425 54.0553 37.5272 59.94 44.7863 59.94C52.0463 59.94 57.931 54.0562 57.931 46.7962C57.93 42.6703 56.0166 39.0047 53.0447 36.5962ZM44.9747 57.1181C39.4791 57.1181 35.0222 52.6603 35.0222 47.1637C35.0222 43.8637 36.6413 40.9594 39.1144 39.1509C39.1313 39.1331 39.1341 39.1191 39.1547 39.1022C40.4128 38.0259 40.5281 35.8416 40.5281 35.8416V6.29906C40.5281 4.68562 41.835 3.37874 43.4485 3.37874H46.1241C47.7394 3.37874 49.0453 4.68655 49.0453 6.29906V35.9222C49.0847 36.5522 49.3444 37.8 50.6822 39.0197C50.7225 39.0553 50.7441 39.0834 50.7797 39.1172C53.2838 40.9247 54.93 43.8422 54.93 47.1647C54.93 52.6603 50.4741 57.1181 44.9747 57.1181Z" fill="#241F20"/>
<path d="M48.6066 42.1453C48.6037 42.1425 48.6009 42.1406 48.5981 42.1378C46.5272 40.2825 46.3509 38.2912 46.3387 37.8187V32.6156V31.4606V16.7419C46.3387 15.555 45.4706 15.4069 45.12 15.3937H44.4084C44.1094 15.4012 43.2122 15.5381 43.2122 16.9472V32.6156H43.2347V37.5937C43.1831 38.6044 42.8287 40.6378 40.9106 42.18C40.9116 42.1819 40.9134 42.1828 40.9134 42.1847C39.39 43.3434 38.3972 45.1565 38.3972 47.2219C38.3972 50.7506 41.2584 53.61 44.7853 53.61C48.315 53.61 51.1753 50.7497 51.1753 47.2219C51.1762 45.1331 50.1609 43.3031 48.6066 42.1453Z" fill="#241F20"/>
</svg>
