<svg width="62" height="61" viewBox="0 0 62 61" fill="none" xmlns="http://www.w3.org/2000/svg">
<g clip-path="url(#clip0_1630_1168)">
<path d="M45.2513 26.6745L32.615 6.55083C32.4317 6.29335 32.1894 6.08343 31.9085 5.93859C31.6276 5.79375 31.3161 5.71818 31 5.71818C30.6839 5.71818 30.3724 5.79375 30.0915 5.93859C29.8106 6.08343 29.5683 6.29335 29.385 6.55083L16.6919 26.7721C14.9288 29.616 13.9464 32.8743 13.8438 36.2187C13.8438 40.7689 15.6513 45.1326 18.8687 48.35C22.0861 51.5675 26.4499 53.375 31 53.375C35.5501 53.375 39.9139 51.5675 43.1313 48.35C46.3487 45.1326 48.1562 40.7689 48.1562 36.2187C48.0466 32.8368 47.0444 29.5441 45.2513 26.6745ZM31 49.5634C27.4624 49.559 24.071 48.1517 21.5695 45.6502C19.068 43.1487 17.6607 39.7573 17.6562 36.2197C17.7575 33.5534 18.5584 30.9607 19.9786 28.7018L21.761 25.8638L40.9642 45.0658C39.7168 46.4787 38.1834 47.6103 36.4655 48.3857C34.7477 49.1611 32.8847 49.5626 31 49.5634Z" fill="black"/>
</g>
<defs>
<clipPath id="clip0_1630_1168">
<rect width="61" height="61" fill="white" transform="translate(0.5)"/>
</clipPath>
</defs>
</svg>
